<?xml version="1.0" encoding="utf-8"?>
<!-- Generator: Adobe Illustrator 21.0.0, SVG Export Plug-In . SVG Version: 6.00 Build 0)  -->
<svg version="1.1" id="Layer_1" xmlns="http://www.w3.org/2000/svg" xmlns:xlink="http://www.w3.org/1999/xlink" x="0px" y="0px"
	 viewBox="0 0 167.7 74.3" style="enable-background:new 0 0 167.7 74.3;" xml:space="preserve">
<style type="text/css">
	.st0{fill-rule:evenodd;clip-rule:evenodd;fill:#55B74D;}
	.st1{fill-rule:evenodd;clip-rule:evenodd;fill:#52297E;}
	.st2{fill:#52297E;}
	.st3{fill:#55B74D;}
</style>
<path class="st0" d="M57.6,42.5h2V30.1l-2,0.3v-2.2c1.4-0.4,2.5-1.1,3.6-2.1h1.9v16.4h2v2.8h-7.6V42.5z"/>
<path class="st0" d="M72.7,37.4c1.4,1.3,2.1,2.3,2.1,3.5c0,1.2-0.7,2-1.7,2c-1,0-1.6-0.8-1.6-2.2C71.5,39.5,71.9,38.3,72.7,37.4
	 M73.5,33.2c-1-1.1-1.5-2-1.5-3c0-1.2,0.6-1.8,1.3-1.8c0.8,0,1.4,0.7,1.4,1.9C74.7,31.3,74.3,32.2,73.5,33.2 M71.2,35.8
	c-1.9,1.5-2.8,3-2.8,5c0,2.9,1.9,4.8,4.6,4.8c2.9,0,4.8-1.9,4.8-5.1c0-2.1-0.9-3.9-2.7-5.7c1.6-1.5,2.3-2.9,2.3-4.7
	c0-2.5-1.7-4.2-4.3-4.2c-2.4,0-4.2,1.9-4.2,4.8C69,32.5,69.7,34.3,71.2,35.8"/>
<path class="st0" d="M82.7,35.6v-2c0-3.6,0.1-5.2,1.1-5.2c1.1,0,1.1,1.6,1.1,5.2v2v2c0,3.6-0.1,5.2-1.1,5.2c-1,0-1.1-1.7-1.1-5.2
	V35.6z M79.1,35.6c0,6.6,1.5,9.9,4.8,9.9c3.1,0,4.7-3.3,4.7-9.9c0-6.6-1.6-9.8-4.8-9.8C80.7,25.8,79.1,29.1,79.1,35.6"/>
<path class="st0" d="M93.8,35.6v-2c0-3.6,0.1-5.2,1.1-5.2c1,0,1.1,1.6,1.1,5.2v2v2c0,3.6-0.1,5.2-1.1,5.2c-1,0-1.1-1.7-1.1-5.2V35.6
	z M90.2,35.6c0,6.6,1.6,9.9,4.8,9.9c3,0,4.7-3.3,4.7-9.9c0-6.6-1.6-9.8-4.8-9.8C91.9,25.8,90.2,29.1,90.2,35.6"/>
<path class="st0" d="M67.8,35.7c0,0.9-0.7,1.6-1.6,1.6c-0.9,0-1.6-0.7-1.6-1.6c0-0.9,0.7-1.6,1.6-1.6C67.1,34.2,67.8,34.9,67.8,35.7
	"/>
<path class="st1" d="M45,26.6c-1.7,4.1-4.2,7.7-8.6,9.4c-1.1,0.3-2.3,0.4-3.5,0c-2-6.5,0.5-13.9,4.6-19.2c2.9-4.1,7.4-6.8,12.4-8.8
	C45.3,13.3,47.8,20.6,45,26.6"/>
<path class="st1" d="M41.1,10.1C34.2,15.5,28,25.3,30.4,34.5c-4-1-6.7-5.1-7.7-9.2c-0.8-4.2,0.2-8.8,3.4-11.7
	c3.6-3.6,7.7-8,7.3-13.6C37.5,1.5,39.9,6,41.1,10.1"/>
<path class="st2" d="M38.7,53.2h-2.5v-4.3h2.5v-3.8c0-4.4,2-5.9,5.2-5.9c0.9,0,1.8,0,2.7,0.1v4.5c-0.3,0-0.6,0-1,0
	c-1.4,0-1.9,0.5-1.9,2v3.2h2.9v4.3h-2.9v20.2h-5V53.2z"/>
<rect x="48.4" y="39.9" class="st2" width="5" height="33.5"/>
<path class="st2" d="M63.8,48.3c6-0.1,7.6,4.4,7.6,12.9c0,8.4-1.9,12.9-7.6,12.9c-6,0.1-7.6-4.4-7.6-12.9
	C56.2,52.8,58.1,48.3,63.8,48.3 M63.8,69.8c2,0,2.7-2.5,2.7-8.6c0-6.1-0.6-8.6-2.7-8.6c-2.4,0-2.7,3.6-2.7,8.6
	C61.2,66.2,61.4,69.8,63.8,69.8"/>
<polygon class="st2" points="72,48.9 76.9,48.9 79.2,66.3 79.2,66.3 81.6,48.9 87,48.9 89.6,66.3 89.6,66.3 92,48.9 96.7,48.9 
	92.5,73.4 86.9,73.4 84.4,56 84.3,56 81.9,73.4 76.1,73.4 "/>
<path class="st2" d="M101.9,62.1v2c0,2.9,0.6,5.7,2.4,5.7c1.7,0,2.3-1.6,2.6-4.6h4.4c-0.2,5.7-2.3,8.9-7,8.9c-7.2,0-7.5-7-7.5-13.1
	c0-6.6,1-12.7,7.7-12.7c5.8,0,7.1,4.9,7.1,12.4v1.4H101.9z M107,58.4c-0.1-3.7-0.5-5.8-2.5-5.8c-2,0-2.5,2.6-2.5,4.9v1H107z"/>
<path class="st2" d="M113.6,48.9h4.7v3.3h0.1c1-2.4,2.4-3.9,4.4-3.9c0.3,0,0.6,0,0.9,0.1v6c-0.5,0-1-0.1-1.5-0.1
	c-1.7,0-3.7,1.1-3.7,4.4v14.7h-5V48.9z"/>
<path class="st2" d="M129.2,65.4v0.8c0,2.1,0.9,3.6,2.6,3.6c1.5,0,2.5-1,2.5-2.9c0-1.6-0.8-2.3-1.8-2.8l-3.5-1.6
	c-2.7-1.2-4.1-3.4-4.1-6.8c0-4.1,2-7.4,7.1-7.4c4.5,0,6.6,2.5,6.6,7v1h-4.4c0-2.5-0.6-3.7-2.2-3.7c-1.3,0-2.3,0.9-2.3,2.6
	c0,1.2,0.5,2.2,2.2,2.9l3,1.3c3.1,1.3,4.3,3.3,4.3,7c0,5.1-3,7.7-7.2,7.7c-5.6,0-7.1-3.1-7.1-7.8v-0.9H129.2z"/>
<path class="st1" d="M139.6,72c0-0.5,0.1-0.8,0.5-1.2c0.3-0.3,0.7-0.5,1.1-0.5c0.5,0,0.9,0.2,1.2,0.5c0.3,0.3,0.5,0.7,0.5,1.2
	c0,0.4-0.1,0.8-0.5,1.1c-0.3,0.3-0.7,0.5-1.2,0.5c-0.4,0-0.8-0.2-1.1-0.5C139.8,72.9,139.6,72.4,139.6,72"/>
<path class="st1" d="M146.9,73.5c-1.8,0-2.8-1.5-2.8-4.4c0-3.1,1.1-4.8,2.8-4.8c1.6,0,2.4,1.1,2.4,3.1v0.3h-1.8v-0.4
	c0-1-0.2-1.5-0.6-1.5c-0.5,0-0.6,0.8-0.6,2.4c0,2.4,0.1,3.4,0.7,3.4c0.5,0,0.8-0.6,0.8-1.7v-0.1l1.7,0.1
	C149.5,72.3,148.5,73.5,146.9,73.5"/>
<path class="st1" d="M153.3,66c0.7,0,0.8,0.9,0.8,3c0,2-0.2,2.9-0.8,2.9c-0.6,0-0.8-1-0.8-2.9C152.5,66.9,152.7,66,153.3,66
	 M150.3,68.9c0,3,1,4.6,2.9,4.6c1.9,0,3-1.6,3-4.6c0-3.1-1-4.6-3-4.6C151.3,64.3,150.3,65.9,150.3,68.9"/>
<path class="st1" d="M157.3,64.5h2v0.8c0.6-0.6,1.1-1,1.7-1c0.7,0,1.1,0.3,1.4,1c0.6-0.6,1.1-1,1.7-1c1,0,1.4,0.6,1.4,1.7v7.3h-2
	v-6.7c0-0.3-0.1-0.6-0.5-0.6c-0.2,0-0.5,0.1-0.6,0.4v6.8h-2v-6.7c0-0.3-0.2-0.6-0.5-0.6c-0.3,0-0.5,0.1-0.6,0.4v6.8h-2V64.5z"/>
<path class="st1" d="M166.7,72.7c-0.1-0.1-0.1-0.1-0.2-0.1c-0.1,0-0.1,0-0.1,0.1c0,0.2,0.4,0.2,0.4,0.4c0,0.1-0.1,0.2-0.2,0.2
	c-0.1,0-0.2,0-0.2-0.1v-0.1c0.1,0.1,0.1,0.1,0.2,0.1c0.1,0,0.1-0.1,0.1-0.1c0-0.2-0.4-0.2-0.4-0.4c0-0.1,0.1-0.2,0.2-0.2
	c0.1,0,0.1,0,0.2,0.1V72.7z"/>
<polygon class="st1" points="167.7,73.3 167.5,73.3 167.5,72.7 167.3,73 167.3,73 167,72.7 167,72.7 167,73.3 166.9,73.3 
	166.9,72.5 167,72.5 167.3,72.8 167.5,72.5 167.7,72.5 "/>
<path class="st3" d="M30.9,36.6c-0.3-0.1-0.6,0.1-0.6,0.3c-2.2,4.6-4.3,9.6-5.6,14.6c-1.5-5-3.5-9.9-6-14.5
	c-4.8-9.1-10-18-17.7-23.6c-0.3-0.2-0.6-0.2-0.8,0.1c-0.2,0.3-0.1,0.7,0.1,1c7,6.5,10.5,16.4,15.1,25c3.6,9.9,7.1,20.4,6,31.4
	c0.2,2,1.7,3.5,3.4,3.2c0.7-0.1,1.3-0.5,1.8-1c0.5-0.6,0.8-1.3,0.9-2.1c-0.7-3.7-1-7.4-0.8-11.1c0.1-3.3,0.6-6.6,1.4-9.8
	c1.1-4.3,2.7-8.5,3.2-13C31.3,37,31.1,36.7,30.9,36.6"/>
</svg>
